<?xml version="1.0" encoding="utf-8"?>
<!-- Generator: Adobe Illustrator 16.0.3, SVG Export Plug-In . SVG Version: 6.00 Build 0)  -->
<!DOCTYPE svg PUBLIC "-//W3C//DTD SVG 1.1//EN" "http://www.w3.org/Graphics/SVG/1.1/DTD/svg11.dtd">
<svg version="1.1" id="Layer_1" xmlns="http://www.w3.org/2000/svg" xmlns:xlink="http://www.w3.org/1999/xlink" x="0px" y="0px"
	 width="512px" height="512px" viewBox="0 0 512 512" enable-background="new 0 0 512 512" xml:space="preserve">
<g>
	<g>
		<g>
			<path fill="#C56528" d="M357.139,314.272c-7.074,0.172-7.936-10.799-0.846-10.971c7.193-0.174,14.615,0.285,22.023,1.387
				c-0.758-1.037-1.176-2.369-1-3.949c0.492-4.416,1.521-8.709,2.822-12.953c4.262-13.895,8.389-26.979,6.113-41.711
				c-2.002-12.961-8.338-24.834-18.486-33.223c-17.207-14.221-40.318-16.934-61.887-17.326c-11.139-0.201-22.279,0.139-33.42,0.041
				c-10.785-0.096-21.609-0.471-31.754-4.559c-8.482-3.418-16.158-9.318-19.834-17.912c-2.957-6.916-2.973-14.162-1.504-21.244
				c-12.965,3.646-23.402,20.641-26.686,31.939c-1.986,6.836-2.549,14.566-2.512,21.654c0.031,6.391-0.109,15.615,5.178,20.209
				c1.012,0.879,1.561,2.088,1.717,3.352c10.691-1.264,21.518-1.314,32.156,0.064c10.883,1.408,20.873,5.428,31.562,7.566
				c11.484,2.299,22.953,2.693,34.51,0.664c6.998-1.229,7.76,9.758,0.846,10.971c-10.578,1.857-21.529,1.881-32.135,0.133
				c-9.959-1.639-19.277-5.449-29.16-7.312c-18.469-3.48-37.98-2.439-56.082,2.596c-17.354,4.826-34.572,12.521-46.469,26.508
				c-10.357,12.178-17.414,28.699-11.49,44.197c17.455-7.631,36.148-12.031,55.49-11.092c6.998,0.342,7.91,11.314,0.846,10.971
				c-22.295-1.084-44.197,4.992-63.562,15.801c-17.451,9.742-32.324,21.572-39.865,40.609c-6.744,17.021-9.484,36.131-3.754,53.805
				c3.594,11.082,10.594,26.541,23.826,26.916c0.682-0.525,1.514-0.916,2.51-1.102c34.219-6.324,69.025-7.99,103.758-8.488
				c34.344-0.494,68.646-0.594,102.973-1.947c15.531-0.613,31.062-1.449,46.537-2.916c14.645-1.387,30.121-2.443,44.369-6.279
				c21.525-5.799,43.922-21.852,49.564-44.559C455.502,337.801,395.752,313.338,357.139,314.272z"/>
		</g>
	</g>
	<g>
		<g>
			<path d="M455.6,367.481c-1.732-14.615-9.645-27.398-20.277-37.262c-13.23-12.273-30.748-20.166-48.898-24.061
				c0.885-0.709,1.521-1.801,1.691-3.322c1.596-14.314,8.691-27.203,9.576-41.697c0.83-13.57-1.641-26.311-7.832-38.422
				c-10.639-20.812-33.129-31.727-55.18-35.695c-22.031-3.963-44.656-2.113-66.902-2.473c-17.682-0.287-41.238-6.002-38.133-28.463
				c0.369-2.668,1.098-5.318,1.998-7.852c1.062-2.984,0.053-7.547-3.877-7.846c-22.006-1.676-38.65,20.006-45.076,38.854
				c-3.037,8.906-3.531,18.982-3.484,28.322c0.037,7.361,1.031,15.785,5.201,22.111c0.027,0.455,0.105,0.91,0.23,1.355
				c-6.344,1.312-12.594,3.027-18.68,5.115c-18.391,6.311-35.09,16.75-46.553,32.689c-10.795,15.012-14.943,33.152-8.381,50.234
				c-2.082,1.078-4.15,2.184-6.189,3.344c-9.533,5.42-18.494,11.881-26.168,19.742c-8.111,8.305-13.332,18.84-17.055,29.721
				c-6.801,19.879-7.891,40.68-0.564,60.494c5.705,15.43,17.646,31.947,36.092,29.9c1.449-0.16,2.559-0.758,3.355-1.592
				c62.324-10.955,125.816-6.602,188.744-9.32c30.885-1.336,61.693-2.516,92.295-7.264c12.619-1.957,24.209-4.883,35.525-10.936
				c10.295-5.508,19.488-13.48,26.473-22.82C452.744,398.018,457.42,382.842,455.6,367.481z M443.494,386.112
				c-5.643,22.707-28.039,38.76-49.564,44.559c-14.248,3.836-29.725,4.893-44.369,6.279c-15.475,1.467-31.006,2.303-46.537,2.916
				c-34.326,1.354-68.629,1.453-102.973,1.947c-34.732,0.498-69.539,2.164-103.758,8.488c-0.996,0.186-1.828,0.576-2.51,1.102
				c-13.232-0.375-20.232-15.834-23.826-26.916c-5.73-17.674-2.99-36.783,3.754-53.805c7.541-19.037,22.414-30.867,39.865-40.609
				c19.365-10.809,41.268-16.885,63.562-15.801c7.064,0.344,6.152-10.629-0.846-10.971c-19.342-0.939-38.035,3.461-55.49,11.092
				c-5.924-15.498,1.133-32.02,11.49-44.197c11.896-13.986,29.115-21.682,46.469-26.508c18.102-5.035,37.613-6.076,56.082-2.596
				c9.883,1.863,19.201,5.674,29.16,7.312c10.605,1.748,21.557,1.725,32.135-0.133c6.914-1.213,6.152-12.199-0.846-10.971
				c-11.557,2.029-23.025,1.635-34.51-0.664c-10.689-2.139-20.68-6.158-31.562-7.566c-10.639-1.379-21.465-1.328-32.156-0.064
				c-0.156-1.264-0.705-2.473-1.717-3.352c-5.287-4.594-5.146-13.818-5.178-20.209c-0.037-7.088,0.525-14.818,2.512-21.654
				c3.283-11.299,13.721-28.293,26.686-31.939c-1.469,7.082-1.453,14.328,1.504,21.244c3.676,8.594,11.352,14.494,19.834,17.912
				c10.145,4.088,20.969,4.463,31.754,4.559c11.141,0.098,22.281-0.242,33.42-0.041c21.568,0.393,44.68,3.105,61.887,17.326
				c10.148,8.389,16.484,20.262,18.486,33.223c2.275,14.732-1.852,27.816-6.113,41.711c-1.301,4.244-2.33,8.537-2.822,12.953
				c-0.176,1.58,0.242,2.912,1,3.949c-7.408-1.102-14.83-1.561-22.023-1.387c-7.09,0.172-6.229,11.143,0.846,10.971
				C395.752,313.338,455.502,337.801,443.494,386.112z"/>
		</g>
	</g>
	<g>
		<g>
			<path d="M298.471,99.43c-5.268-5.572-13.82-10.602-15.145-18.775c-0.645-3.971,0.209-9.201,1.678-12.92
				c1.6-4.047,5.473-6.234,9.072-8.279c6.178-3.51-0.02-12.604-6.15-9.119c-7.949,4.516-13.027,10.256-14.793,19.379
				c-1.859,9.605-0.646,18.27,5.795,25.85c5.732,6.748,13.604,11.613,17.658,19.701c5.85,11.662,0.631,24.055-8.66,32.07
				c-5.309,4.578,0.781,13.75,6.15,9.119c8.516-7.346,15.061-16.691,15.934-28.199C310.848,117.202,305.893,107.276,298.471,99.43z"
				/>
		</g>
	</g>
	<g>
		<g>
			<path d="M237.029,103.54c-1.584-5.221-5.412-10.037-8.355-14.541c-4.18-6.395-16.42-22.051-4.855-26.912
				c6.504-2.732,2.924-13.139-3.637-10.383c-6.26,2.631-11.402,7.146-12.158,14.246c-0.73,6.834,2.277,13.293,5.402,19.166
				c3.217,6.043,7.291,11.58,10.865,17.408c4.486,7.314,1.727,14.83-2.217,21.924c-3.459,6.219,6.422,11.066,9.854,4.895
				C236.092,121.852,239.648,112.176,237.029,103.54z"/>
		</g>
	</g>
	<g>
		<g>
			<path d="M166.93,140.153c-3.994-6.695-11.264-13.232-11.67-21.43c-0.172-3.445,0.285-6.895,0.889-10.279
				c0.389-2.17,0.971-6.592,2.928-7.988c5.768-4.121-0.369-13.25-6.15-9.119c-6.354,4.537-7.736,13.916-8.395,21.133
				c-0.873,9.549,1.619,16.73,6.98,24.646c5.963,8.799,12.125,17.059,10.867,28.383c-1.154,10.404-11.662,17.18-10.863,27.82
				c0.531,7.064,11.502,6.238,10.971-0.848c-0.299-3.959,3.611-7.648,5.594-10.787c2.67-4.223,4.27-9.18,5.096-14.088
				C174.76,158.206,171.709,148.161,166.93,140.153z"/>
		</g>
	</g>
</g>
</svg>
